<?xml version="1.0" encoding="utf-8"?>
<!-- Generator: Adobe Illustrator 24.0.2, SVG Export Plug-In . SVG Version: 6.00 Build 0)  -->
<svg version="1.1" id="Layer_1" xmlns="http://www.w3.org/2000/svg" xmlns:xlink="http://www.w3.org/1999/xlink" x="0px" y="0px"
	 viewBox="0 0 465.78 115" style="enable-background:new 0 0 465.78 115;" xml:space="preserve">
<style type="text/css">
	.st0{fill:#66FCF1;}
	.st1{fill:#FFFFFF;}
</style>
<g>
	<path class="st0" d="M6.13,93.15c3.27,0,6.01,1.02,8.22,3.05c2.2,2.04,3.3,4.8,3.3,8.29c0,1.77-0.28,3.33-0.85,4.69
		c-0.57,1.36-1.34,2.45-2.34,3.26c-2.04,1.65-4.59,2.47-7.65,2.47c-2,0-4.28-0.11-6.82-0.33V93.36C2.02,93.22,4.07,93.15,6.13,93.15
		z M6.82,113.6c2.8,0,5.05-0.76,6.74-2.28c1.7-1.52,2.55-3.81,2.55-6.86c0-3.06-0.96-5.49-2.87-7.29c-1.92-1.81-4.28-2.71-7.1-2.71
		c-1.81,0-3.37,0.05-4.7,0.15v18.76C2.72,113.52,4.52,113.6,6.82,113.6z"/>
	<path class="st0" d="M28.37,114.64V93.36h9.88v1.25H29.8v7.83h7.65v1.22H29.8v9.74h8.78v1.25H28.37z"/>
	<path class="st0" d="M57.6,95.23c-1.45-0.62-2.89-0.92-4.32-0.92c-2.9,0-4.35,1.07-4.35,3.21c0,0.93,0.33,1.8,0.98,2.61
		c0.65,0.8,1.45,1.52,2.38,2.14c0.93,0.63,1.87,1.27,2.8,1.92c0.93,0.65,1.73,1.44,2.38,2.35c0.65,0.91,0.98,1.91,0.98,2.98
		c0,1.81-0.61,3.17-1.82,4.09c-1.21,0.92-2.88,1.38-5.02,1.38c-2.13,0-3.96-0.55-5.46-1.64l0.71-1.07c1.43,0.93,3,1.4,4.7,1.4
		c1.71,0,3.02-0.34,3.93-1.03c0.91-0.69,1.37-1.67,1.37-2.96c0-0.89-0.33-1.74-0.98-2.55c-0.65-0.8-1.45-1.53-2.38-2.17
		c-0.93-0.64-1.87-1.3-2.8-1.98c-0.93-0.67-1.73-1.48-2.38-2.41s-0.98-1.94-0.98-3.01c0-1.41,0.52-2.53,1.56-3.35
		c1.04-0.82,2.45-1.24,4.23-1.24c1.78,0,3.43,0.36,4.96,1.07L57.6,95.23z"/>
	<path class="st0" d="M68.8,114.64V93.36h1.43v21.29H68.8z"/>
	<path class="st0" d="M84.96,97.11c-1.65,1.87-2.47,4.15-2.47,6.86s0.93,5.01,2.8,6.89c1.86,1.89,4.14,2.83,6.82,2.83
		c2.3,0,4.22-0.32,5.75-0.95v-8.75h1.43v9.41c-1.73,1.07-4.14,1.61-7.25,1.61c-3.11,0-5.73-1.07-7.87-3.2
		c-2.14-2.13-3.22-4.74-3.22-7.83c0-3.09,0.97-5.69,2.92-7.8C85.81,94.06,88.3,93,91.33,93c2.38,0,4.79,0.4,7.23,1.19l-0.39,1.19
		c-2.38-0.72-4.66-1.07-6.85-1.07C88.73,94.31,86.61,95.24,84.96,97.11z"/>
	<path class="st0" d="M112.14,96.75l0.06,2.53v15.36h-1.43V93.18h0.66l14.02,16.16c0.95,1.13,1.69,2.03,2.2,2.71
		c-0.08-0.95-0.12-2.04-0.12-3.27V93.36h1.43v21.46h-0.65l-14.29-16.46c-0.99-1.13-1.63-1.89-1.91-2.26L112.14,96.75z"/>
	<path class="st0" d="M168.47,106.46h1.16c-0.04,1.85-0.57,3.46-1.58,4.85l3.1,3.33h-1.79l-2.17-2.35
		c-0.95,0.83-2.04,1.49-3.27,1.96c-1.23,0.48-2.42,0.71-3.57,0.71c-1.92,0-3.43-0.4-4.51-1.21c-1.08-0.8-1.62-1.93-1.62-3.38
		c0-1.45,0.43-2.67,1.28-3.68c0.85-1,2.05-2.03,3.6-3.08c-2.36-2.54-3.54-4.5-3.54-5.86c0-1.37,0.45-2.45,1.34-3.23
		c0.89-0.78,2.19-1.18,3.9-1.18s2.99,0.4,3.84,1.21c0.85,0.8,1.28,1.77,1.28,2.89c0,1.12-0.43,2.18-1.28,3.17
		c-0.85,0.99-2.03,2.07-3.54,3.25l6.16,6.58c0.34-0.4,0.63-1,0.86-1.82C168.35,107.82,168.47,107.09,168.47,106.46z M160.52,113.81
		c2,0,3.94-0.8,5.81-2.41l-6.34-6.79c-2.94,1.79-4.41,3.57-4.41,5.36c0,1.21,0.43,2.15,1.28,2.83
		C157.71,113.47,158.93,113.81,160.52,113.81z M164.57,97.7c0-0.99-0.32-1.77-0.97-2.32c-0.65-0.56-1.55-0.83-2.72-0.83
		c-2.66,0-3.99,1.05-3.99,3.16c0,0.56,0.17,1.16,0.52,1.8c0.35,0.65,0.72,1.19,1.12,1.64c0.4,0.45,0.95,1.03,1.67,1.74
		C163.11,100.96,164.57,99.23,164.57,97.7z"/>
	<path class="st0" d="M194.31,114.64V93.48c1.65-0.16,3.25-0.24,4.79-0.24c2.08,0,3.76,0.49,5.02,1.46
		c1.26,0.97,1.89,2.44,1.89,4.39c0,1.95-0.86,3.56-2.58,4.82c-1.72,1.26-3.77,1.89-6.15,1.89c-0.1,0-0.21,0-0.33,0v-0.98
		c0.08,0,0.15,0,0.21,0c1.96,0,3.67-0.52,5.12-1.55c1.45-1.03,2.17-2.38,2.17-4.03c0-1.66-0.51-2.86-1.52-3.6
		c-1.01-0.74-2.37-1.12-4.08-1.12c-0.89,0-1.94,0.04-3.13,0.12v20.01H194.31z"/>
	<path class="st0" d="M231.76,114.64v-10.66h-14.62v10.66h-1.43V93.36h1.43v9.35h14.62v-9.35h1.43v21.29H231.76z"/>
	<path class="st0" d="M246.87,111.81c-1.98-2.12-2.96-4.73-2.96-7.83c0-3.1,0.99-5.7,2.96-7.81c1.97-2.11,4.47-3.17,7.49-3.17
		s5.52,1.06,7.5,3.17c1.98,2.11,2.98,4.72,2.98,7.81c0,3.1-0.99,5.71-2.98,7.83c-1.99,2.12-4.49,3.19-7.5,3.19
		S248.84,113.94,246.87,111.81z M247.92,97.09c-1.65,1.86-2.47,4.15-2.47,6.89c0,2.74,0.83,5.04,2.49,6.91
		c1.66,1.87,3.8,2.8,6.43,2.8c2.63,0,4.77-0.93,6.43-2.8c1.66-1.87,2.49-4.17,2.49-6.91c0-2.74-0.83-5.04-2.49-6.89
		c-1.66-1.86-3.81-2.78-6.45-2.78S249.57,95.24,247.92,97.09z"/>
	<path class="st0" d="M278.41,94.61h-7.2v-1.25h15.84v1.25h-7.2v20.04h-1.43V94.61z"/>
	<path class="st0" d="M296.37,111.81c-1.98-2.12-2.96-4.73-2.96-7.83c0-3.1,0.99-5.7,2.96-7.81c1.97-2.11,4.47-3.17,7.49-3.17
		c3.02,0,5.52,1.06,7.5,3.17c1.98,2.11,2.98,4.72,2.98,7.81c0,3.1-0.99,5.71-2.98,7.83c-1.99,2.12-4.49,3.19-7.5,3.19
		C300.84,115,298.35,113.94,296.37,111.81z M297.43,97.09c-1.65,1.86-2.47,4.15-2.47,6.89c0,2.74,0.83,5.04,2.49,6.91
		c1.66,1.87,3.8,2.8,6.43,2.8c2.63,0,4.77-0.93,6.43-2.8c1.66-1.87,2.49-4.17,2.49-6.91c0-2.74-0.83-5.04-2.49-6.89
		c-1.66-1.86-3.81-2.78-6.45-2.78C301.22,94.31,299.08,95.24,297.43,97.09z"/>
	<path class="st0" d="M327.83,97.11c-1.65,1.87-2.47,4.15-2.47,6.86s0.93,5.01,2.8,6.89c1.86,1.89,4.14,2.83,6.82,2.83
		c2.3,0,4.22-0.32,5.75-0.95v-8.75h1.43v9.41c-1.73,1.07-4.14,1.61-7.25,1.61c-3.11,0-5.73-1.07-7.87-3.2
		c-2.14-2.13-3.22-4.74-3.22-7.83c0-3.09,0.97-5.69,2.92-7.8c1.94-2.11,4.44-3.17,7.47-3.17c2.38,0,4.79,0.4,7.23,1.19l-0.39,1.19
		c-2.38-0.72-4.66-1.07-6.85-1.07C331.6,94.31,329.47,95.24,327.83,97.11z"/>
	<path class="st0" d="M353.64,114.64v-21.2c1.89-0.14,3.46-0.21,4.73-0.21c2.02,0,3.69,0.52,5,1.56c1.31,1.04,1.96,2.52,1.96,4.42
		c0,1.29-0.38,2.49-1.13,3.6c-0.75,1.11-1.6,1.99-2.53,2.65c0.73,1.01,1.64,2.22,2.72,3.62c1.08,1.4,1.78,2.28,2.1,2.63
		c1.21,1.29,2.58,2.02,4.11,2.2l-0.03,0.95c-1.21-0.02-2.19-0.2-2.95-0.55c-0.75-0.35-1.47-0.88-2.16-1.59
		c-0.68-0.71-2.39-2.94-5.11-6.67c-1.95,0-3.71-0.06-5.3-0.18v8.75H353.64z M359.5,104.88c0.87,0,1.81-0.58,2.8-1.73
		c0.99-1.15,1.49-2.49,1.49-4c0-1.52-0.51-2.67-1.53-3.45c-1.02-0.78-2.38-1.18-4.06-1.18c-0.89,0-1.94,0.04-3.13,0.12v10.09
		C356.65,104.83,358.13,104.88,359.5,104.88z"/>
	<path class="st0" d="M378.46,107.26l-3.07,7.38h-1.52l8.96-21.43h0.83l8.99,21.43h-1.61l-3.07-7.38H378.46z M383.17,95.59
		c-0.02,0.02-0.06,0.14-0.12,0.36c-0.28,0.85-0.55,1.58-0.8,2.17l-3.27,7.92h8.51l-3.28-7.89
		C383.52,96.64,383.17,95.79,383.17,95.59z"/>
	<path class="st0" d="M401.18,114.64V93.48c1.65-0.16,3.25-0.24,4.79-0.24c2.08,0,3.76,0.49,5.02,1.46
		c1.26,0.97,1.89,2.44,1.89,4.39c0,1.95-0.86,3.56-2.58,4.82c-1.72,1.26-3.77,1.89-6.15,1.89c-0.1,0-0.21,0-0.33,0v-0.98
		c0.08,0,0.15,0,0.21,0c1.96,0,3.67-0.52,5.12-1.55c1.45-1.03,2.17-2.38,2.17-4.03c0-1.66-0.51-2.86-1.52-3.6
		c-1.01-0.74-2.37-1.12-4.08-1.12c-0.89,0-1.94,0.04-3.13,0.12v20.01H401.18z"/>
	<path class="st0" d="M438.63,114.64v-10.66h-14.62v10.66h-1.43V93.36h1.43v9.35h14.62v-9.35h1.43v21.29H438.63z"/>
	<path class="st0" d="M457.74,114.64h-1.43v-7.62l-8.01-13.66h1.73l6.19,10.78c0.36,0.64,0.65,1.19,0.89,1.67
		c0.08-0.26,0.36-0.79,0.83-1.61l6.19-10.84h1.64l-8.04,13.72V114.64z"/>
</g>
<path class="st1" d="M59.69,19.99c-2.26-2.26-5.71-4.95-9.37-6.67c-3.77-1.72-8.18-2.8-12.38-2.8c-16.58,0-28.85,13.35-28.85,29.93
	c0,19.49,15.82,29.28,28.96,29.28c4.84,0,9.58-1.4,13.35-3.34c4.09-2.04,7-4.74,8.29-6.03v9.9c-7.97,5.71-16.26,7-21.64,7
	c-21.32,0-37.14-16.15-37.14-36.92c0-21.42,16.04-37.35,37.57-37.35c4.31,0,12.59,0.54,21.21,7.11V19.99z"/>
<path class="st1" d="M116.63,55.73H86.05l-8.61,20.24h-8.83l33.05-75.25l32.19,75.25h-8.83L116.63,55.73z M113.5,48.2l-12.06-28.74
	L89.17,48.2H113.5z"/>
<path class="st1" d="M158.17,4.17c4.84,0,12.06,0.32,17.44,3.98c4.2,2.8,7.86,8.29,7.86,15.93c0,10.98-7.21,19.05-18.09,19.81
	l22.82,32.08h-9.69l-21.85-31.43h-2.05v31.43h-7.97V4.17H158.17z M154.62,37.43h5.06c9.9,0,15.82-4.74,15.82-13.13
	c0-3.98-1.18-7.97-5.71-10.55c-3.23-1.83-6.89-2.04-10.33-2.04h-4.84V37.43z"/>
<path class="st1" d="M211.34,4.17v64.27h19.81v7.54h-27.77V4.17H211.34z"/>
<path class="st1" d="M276.68,18.38c-0.97-1.94-2.58-4.09-4.2-5.38c-1.4-1.08-3.98-2.48-8.07-2.48c-7.11,0-12.06,4.41-12.06,11.09
	c0,2.8,0.75,4.41,2.69,6.24c2.15,2.15,4.84,3.34,7.54,4.52l6.89,3.01c4.2,1.83,8.07,3.77,11.09,6.78c3.66,3.66,5.17,7.86,5.17,13.03
	c0,13.24-9.8,22.07-22.71,22.07c-4.74,0-10.66-0.97-15.61-5.81c-3.55-3.44-5.71-8.4-6.67-12.7l7.75-2.15c0.54,3.77,2.26,7,4.31,9.15
	c3.12,3.12,6.67,3.98,10.33,3.98c9.8,0,14.42-7,14.42-14.21c0-3.23-0.97-6.03-3.55-8.4c-2.04-1.94-4.84-3.23-8.61-4.95l-6.46-3.01
	c-2.8-1.29-6.35-2.8-9.58-5.92c-3.12-3.01-4.95-6.35-4.95-11.73c0-11.09,8.5-18.52,20.13-18.52c4.41,0,7.97,0.86,11.52,3.23
	c2.91,1.94,5.38,4.84,7,7.97L276.68,18.38z"/>
<g>
	<path class="st1" d="M329.26,0c-17.68,0-31.53,13.77-31.53,31.34c0,17.58,13.85,31.35,31.53,31.35c17.67,0,31.52-13.77,31.52-31.35
		C360.77,13.77,346.92,0,329.26,0z M329.26,55.37c-13.05,0-23.67-10.78-23.67-24.03c0-13.25,10.62-24.03,23.67-24.03
		c13.05,0,23.67,10.78,23.67,24.03C352.93,44.59,342.31,55.37,329.26,55.37z"/>
</g>
<path class="st1" d="M376.19,75.97V1.15l55.98,58.67V4.17h7.97V79.2l-55.98-58.67v55.44H376.19z"/>
<rect x="300.18" y="68.47" class="st1" width="58.15" height="6.49"/>
<circle class="st1" cx="329.25" cy="31.34" r="5.85"/>
</svg>
